<svg width="24" height="25" viewBox="0 0 24 25" fill="none" xmlns="http://www.w3.org/2000/svg">
<path d="M22.9914 4.45021C22.9915 4.27357 22.9448 4.10007 22.8561 3.94735C22.7673 3.79464 22.6397 3.66817 22.4862 3.58084C22.3326 3.4935 22.1587 3.44842 21.9821 3.45017C21.8054 3.45193 21.6324 3.50046 21.4807 3.59083C20.8954 3.93921 20.2652 4.20601 19.6077 4.38383C18.6686 3.57806 17.471 3.13713 16.2337 3.14164C14.8762 3.1432 13.5726 3.67223 12.5979 4.61702C11.6232 5.56181 11.0539 6.8484 11.01 8.20512C8.33402 7.77838 5.90868 6.38164 4.19649 4.28126C4.09333 4.15609 3.96158 4.05757 3.81235 3.994C3.66313 3.93043 3.5008 3.90368 3.33907 3.91601C3.17743 3.92932 3.02147 3.9818 2.88467 4.06892C2.74786 4.15603 2.63434 4.27516 2.55391 4.41601C2.14144 5.13582 1.90454 5.94276 1.86246 6.77131C1.82038 7.59986 1.9743 8.42666 2.31172 9.18456L2.30977 9.18651C2.15812 9.27991 2.03296 9.41066 1.94628 9.56625C1.85959 9.72185 1.81427 9.89708 1.81465 10.0752C1.81282 10.2221 1.82163 10.369 1.84102 10.5146C1.94316 11.7729 2.50081 12.9507 3.40938 13.8271C3.34775 13.9446 3.31013 14.0731 3.29873 14.2052C3.28732 14.3373 3.30237 14.4704 3.34297 14.5967C3.73909 15.8308 4.58147 16.8727 5.70528 17.5185C4.56352 17.96 3.3307 18.114 2.11543 17.9668C1.89051 17.9386 1.66266 17.9876 1.46928 18.1059C1.2759 18.2242 1.12846 18.4047 1.05115 18.6178C0.973837 18.8309 0.971244 19.0639 1.04379 19.2787C1.11634 19.4935 1.25973 19.6772 1.45043 19.7998C3.54053 21.146 5.97411 21.8617 8.4602 21.8613C11.2795 21.893 14.0302 20.9921 16.2844 19.2988C18.5387 17.6054 20.1702 15.2145 20.925 12.498C21.2781 11.3146 21.4583 10.0865 21.4602 8.85157C21.4602 8.78614 21.4602 8.71876 21.4592 8.65138C21.9813 8.08831 22.3858 7.42668 22.6489 6.70527C22.912 5.98387 23.0284 5.2172 22.9914 4.45021ZM19.6848 7.66212C19.5196 7.85746 19.436 8.10891 19.4514 8.36427C19.4611 8.52927 19.4602 8.69527 19.4602 8.85157C19.4581 9.89511 19.3052 10.9329 19.0061 11.9326C18.3896 14.244 17.0152 16.2817 15.1031 17.7192C13.1911 19.1568 10.8519 19.9111 8.4602 19.8613C7.60108 19.8616 6.74492 19.7606 5.90942 19.5606C6.97483 19.2172 7.97101 18.6879 8.8518 17.9971C9.01403 17.8693 9.13275 17.6945 9.19169 17.4967C9.25063 17.2988 9.24688 17.0875 9.18098 16.8918C9.11507 16.6961 8.99023 16.5257 8.82358 16.4038C8.65694 16.2819 8.45665 16.2145 8.2502 16.2109C7.41903 16.198 6.62533 15.863 6.03633 15.2764C6.18575 15.2481 6.33419 15.2129 6.48165 15.1709C6.69766 15.1094 6.8867 14.977 7.01831 14.795C7.14993 14.6131 7.21647 14.3921 7.20723 14.1677C7.19798 13.9433 7.11348 13.7285 6.96734 13.558C6.82119 13.3874 6.62191 13.2711 6.40157 13.2275C5.91911 13.1323 5.46512 12.927 5.07489 12.6277C4.68466 12.3284 4.3687 11.9432 4.15157 11.502C4.3323 11.5266 4.51418 11.5419 4.69649 11.5479C4.91308 11.5511 5.12509 11.4854 5.30187 11.3603C5.47865 11.2351 5.61104 11.0569 5.67989 10.8516C5.74587 10.6443 5.74248 10.4212 5.67022 10.2161C5.59797 10.011 5.46079 9.83499 5.2795 9.71485C4.83965 9.42182 4.47935 9.02427 4.23086 8.5578C3.98237 8.09134 3.85346 7.57052 3.85567 7.04201C3.85567 6.97561 3.85762 6.9092 3.86153 6.84377C6.10279 8.93402 9.00985 10.1662 12.0705 10.3233C12.225 10.3293 12.3789 10.3002 12.5205 10.2382C12.6621 10.1761 12.7877 10.0826 12.8879 9.96486C12.9871 9.84596 13.0573 9.70566 13.0931 9.55501C13.1288 9.40437 13.1291 9.24748 13.0939 9.0967C13.0367 8.85806 13.0076 8.61357 13.007 8.36818C13.0079 7.51271 13.3482 6.69254 13.9531 6.08764C14.558 5.48274 15.3781 5.14251 16.2336 5.14161C16.6737 5.14043 17.1093 5.2305 17.5129 5.40615C17.9165 5.5818 18.2792 5.8392 18.5783 6.16212C18.6937 6.2862 18.8388 6.37871 19 6.43085C19.1612 6.48299 19.333 6.49303 19.4992 6.46001C19.91 6.38006 20.3149 6.2724 20.7111 6.13775C20.4409 6.69072 20.0955 7.20369 19.6848 7.66212Z" fill="#ACB9D2"/>
</svg>
