<svg width="24" height="25" viewBox="0 0 24 25" fill="none" xmlns="http://www.w3.org/2000/svg">
<path d="M23 10.21C23.0495 8.77864 22.7365 7.358 22.09 6.07998C21.6514 5.55558 21.0427 5.20169 20.37 5.07998C17.5875 4.82751 14.7936 4.72403 12 4.76998C9.21667 4.72194 6.43274 4.82208 3.66003 5.06998C3.11185 5.1697 2.60454 5.42683 2.20003 5.80998C1.30003 6.63998 1.20003 8.05998 1.10003 9.25998C0.954939 11.4175 0.954939 13.5824 1.10003 15.74C1.12896 16.4154 1.22952 17.0858 1.40003 17.74C1.5206 18.245 1.76455 18.7123 2.11003 19.1C2.51729 19.5034 3.03641 19.7752 3.60003 19.88C5.75594 20.1461 7.92824 20.2564 10.1 20.21C13.6 20.26 16.67 20.21 20.3 19.93C20.8775 19.8316 21.4112 19.5595 21.83 19.15C22.11 18.8699 22.3191 18.5271 22.44 18.15C22.7977 17.0526 22.9733 15.9041 22.96 14.75C23 14.19 23 10.81 23 10.21ZM9.74003 15.35V9.15998L15.66 12.27C14 13.19 11.81 14.23 9.74003 15.35Z" fill="#ACB9D2"/>
</svg>
